PathFileType	3	(X/Y/Z)	D:\Jess\PFP\Labelled\PA26\20251029\SRRun01.trc
DataRate	CameraRate	NumFrames	NumMarkers	Units	OrigDataRate	OrigDataStartFrame	OrigNumFrames
250.0	250.0	5	37	mm	250.0	36250	2501
Frame#	Time	C7			T10			CLAV			LSHO			RSHO			LASIS			RASIS			LPSIS			RPSIS			LILCR			RILCR			LGTR			LTHI			LLTHI			LLEP			LMEP			LPSH			LLSH			LDSH			LLMAL			LMMAL			LTOE			L5TH			LHEE			RGTR			RTHI			RLTHI			RLEP			RMEP			RPSH			RLSH			RDSH			RLMAL			RMMAL			RTOE			R5TH			RHEE			
		X1	Y1	Z1	X2	Y2	Z2	X3	Y3	Z3	X4	Y4	Z4	X5	Y5	Z5	X6	Y6	Z6	X7	Y7	Z7	X8	Y8	Z8	X9	Y9	Z9	X10	Y10	Z10	X11	Y11	Z11	X12	Y12	Z12	X13	Y13	Z13	X14	Y14	Z14	X15	Y15	Z15	X16	Y16	Z16	X17	Y17	Z17	X18	Y18	Z18	X19	Y19	Z19	X20	Y20	Z20	X21	Y21	Z21	X22	Y22	Z22	X23	Y23	Z23	X24	Y24	Z24	X25	Y25	Z25	X26	Y26	Z26	X27	Y27	Z27	X28	Y28	Z28	X29	Y29	Z29	X30	Y30	Z30	X31	Y31	Z31	X32	Y32	Z32	X33	Y33	Z33	X34	Y34	Z34	X35	Y35	Z35	X36	Y36	Z36	X37	Y37	Z37	

1251	144.996	1075.200853106593	1384.678427913124	-333.2718996048992	1004.035606327282	1188.362776377255	-353.7478670904121	1203.814679016985	1300.952387995131	-303.7983943997814	1170.18507855415	1367.574253233932	-460.9905488887306	1085.512924856491	1359.82223490332	-175.8652207903127	1133.846014694908	919.7062107108612	-452.2363837992132	1137.7357890646	941.0870044591527	-219.3826582369153	960.536762926739	991.5606206053586	-356.5085184758323	959.6453060191112	989.6680771150562	-307.9327855887906	1090.358324822641	980.9679548760549	-489.4588094962805	1071.39324575739	997.2475455869094	-176.8483554804673	1053.622988395665	816.6568216620744	-503.299713279381	1113.248233583858	671.810019617168	-437.397515584578	963.5632691345547	573.4410642968776	-474.6936022555114	933.1565339931061	461.7695359191405	-469.1032252839221	nan	nan	nan	899.7976964209676	379.6755655907025	-424.457371480466	749.0100337051073	439.7484712864535	-448.4916514230333	664.8477856391426	372.738547408273	-394.3932685142343	569.7529312727585	415.5384279636168	-401.4225104213908	nan	nan	nan	522.9810204378326	278.9402742654337	-396.9332384338736	489.1321251115989	330.9891016854598	-419.4376261793571	559.308274688831	477.6466337875656	-334.6079174382654	1065.730102837948	873.284585894238	-149.0051454966769	1218.081857361349	753.5986377937303	-253.5632898535073	1168.48637953146	606.937618723966	-208.1287901304569	1223.70723235925	471.3420739000069	-239.5490483846188	nan	nan	nan	1255.30741981241	398.7394421536906	-307.3018402730335	1181.290707626313	282.8296505663129	-235.7215453178021	1217.308663876615	185.7184276235123	-300.2099515217317	1162.987140406127	92.17157326196327	-272.7868241776355	nan	nan	nan	1300.925256936835	68.83270358311519	-312.2122581690391	1264.436701722902	42.72393198813559	-264.2515927684865	1089.022957773543	68.3281195721412	-313.7910260367484	
1252	145	1074.155019140905	1380.543068111859	-332.5413550991747	1003.149947157136	1184.114342157371	-353.0219688243572	1203.69641813529	1296.960283803994	-304.2937424046859	1168.629855635237	1363.411371647828	-462.0713583465939	1085.555002724496	1355.83858973049	-175.1697058282306	1133.131235031739	915.2049778547656	-451.6217639250091	1136.03967441042	937.9725289087048	-218.9882956001094	959.0219870607827	987.6246504420941	-357.5882721258556	958.0142837642919	986.2407657552453	-308.9142811652147	1089.734473401617	975.8430723604997	-489.8924454162963	1070.059312265269	993.7074518782106	-176.7650659072353	1054.537681876234	812.3127717993625	-503.2324469720704	1115.586410696488	669.1516584416536	-438.3842896167644	967.4063903253052	569.1049202267617	-476.2689192284658	939.0048722978728	457.2725355496005	-471.4447920758961	nan	nan	nan	905.7851744280689	375.945908135091	-426.4731304593356	755.4857803027741	438.0227505127307	-450.1531886005195	670.7000443321099	372.5276969574153	-395.8872115049901	576.3601209688413	417.0114879650696	-402.3501219548417	nan	nan	nan	528.6954655303606	280.9242647832763	-400.0101116685716	495.5009865334736	333.5794250462453	-422.0290403197906	566.1599199428493	478.4378172024819	-334.5344935734955	1064.053684908206	870.5327022132134	-148.8048360607931	1216.825100372168	750.9248896177929	-252.8990673181438	1168.36546342947	604.4944892191934	-207.8020442155262	1224.322777504247	469.4631670049165	-240.0268177573437	nan	nan	nan	1254.153168989666	396.6611383203345	-308.0205240269424	1177.806793897028	282.3563850695782	-236.2670287770718	1210.881956114634	184.357400863872	-301.0263707117527	1153.444432848404	92.46215808219952	-273.5438869510836	nan	nan	nan	1291.308509647043	66.88877996094465	-312.7251456059172	1254.136545903929	41.93195556792367	-264.445909980455	1078.944011723281	69.50763594262149	-314.1241172261638	
1253	145.004	1073.10957329866	1376.552677693099	-331.7896260047797	1002.20561644468	1180.080608119589	-352.2740835987438	1203.56539213464	1293.061128287461	-304.8003771034446	1167.023711695342	1359.358315400944	-463.1259648818091	1085.612053698181	1351.987368735067	-174.4620493219231	1132.343810614697	910.8110973477723	-450.9809722703435	1134.275466728751	935.030301345801	-218.5869260900826	957.4922249378258	983.9242119447049	-358.689605195293	956.3521729519148	983.0308353179026	-309.9250710506273	1088.98322842829	970.8749353474174	-490.3386370443422	1068.574846472584	990.3654803191781	-176.7071423548605	1055.476065255644	808.1613881746257	-503.1671182089482	1117.968146248613	666.723442493685	-439.2084442729785	971.4876090164167	564.9347223295039	-477.8941153540238	945.1161867554709	452.9071086761053	-473.7265186078478	nan	nan	nan	912.0823585168858	372.3297876361687	-428.352601994615	762.2600062903973	436.1566886916568	-451.8315614855783	676.9235360969589	372.1360424839324	-397.3755959449546	583.3172162672491	418.1551761321845	-403.3520070876929	nan	nan	nan	534.8653842967044	282.5466930998126	-402.9984452794201	502.3098576205043	335.7346689717492	-424.6433206735641	573.2298113650295	478.965486202863	-334.6634155565425	1062.274722434941	867.985114883188	-148.6293956064175	1215.351264091124	748.4290442265967	-252.3536755921934	1168.126942009325	602.2344953210539	-207.4355578990406	1224.695243537943	467.7142147774627	-240.4351884120196	nan	nan	nan	1252.728206258663	394.6885618759168	-308.6207560837576	1174.045825696393	282.0080805783934	-236.7052979992296	1204.213546310739	183.20729421698	-301.7001567774233	1143.738771409963	92.8983895822514	-274.2211845706425	nan	nan	nan	1281.477061237345	65.37493010352308	-313.1562111035153	1243.712805610793	41.44937353881772	-264.5924546507307	1068.765948456147	70.68157731508697	-314.4170756814709	
1254	145.008	1072.07519878483	1372.737365119202	-331.0215574507896	1001.202926354235	1176.301084597367	-351.5087387287663	1203.413353792658	1289.281366366901	-305.3217216695768	1165.364542787354	1355.445285265136	-464.1445441221631	1085.699830693457	1348.291500842115	-173.7499145544971	1131.488871489347	906.5646938241983	-450.3269676400697	1132.461089649782	932.2821649606727	-218.1782549601036	955.9599108955781	980.4821780444754	-359.7975415786559	954.6736935880339	980.0510553714314	-310.9522600279928	1088.101199862342	966.1155967073157	-490.7951516802967	1066.937726311958	987.2398603460227	-176.6697230177697	1056.418526443685	804.2365015768969	-503.1047418331215	1120.387435504106	664.5434850139007	-439.8492579094892	975.818558021895	560.9511577062405	-479.5654948358867	951.4963107525695	448.7002891428495	-475.9359203198684	nan	nan	nan	918.6885841091871	368.847852479195	-430.0919258489176	769.3253303861927	434.1677851808101	-453.524488628356	683.5062479441422	371.5655790415943	-398.8601442877624	590.5972063968098	418.964362077168	-404.4333407655714	nan	nan	nan	541.4805432231415	283.7886514896857	-405.8902661369211	509.5347959323628	337.4330954122335	-427.2737205783418	580.486773108291	479.2332498809674	-335.003491089783	1060.398375128747	865.6533098120764	-148.4850254256695	1213.684184712985	746.1257787527644	-251.9242060686713	1167.717618477092	600.1509599985363	-207.0383946744619	1224.716104809542	466.0516408929743	-240.7505486551522	nan	nan	nan	1250.980041742367	392.7728645109594	-309.0720988165903	1169.951866874756	281.7261463497624	-237.0321476193434	1197.284584229276	182.2210500738296	-302.2236588836675	1133.876641848436	93.43587347116696	-274.8092665292943	nan	nan	nan	1271.442085544527	64.236907039841	-313.50433793841	1233.174687973686	41.21466488960794	-264.6924102172192	1058.489661796699	71.82291945510319	-314.6678064097006	
1255	145.012	1071.060678185163	1369.12517238457	-330.2423490555623	1000.143807837283	1172.808958388614	-350.7309430308572	1203.231802377483	1285.648215475352	-305.8619792918433	1163.648069828803	1351.702848410242	-465.1192037807176	1085.834174481309	1344.772447743289	-173.0416788876041	1130.573783660627	902.5057494776622	-449.6739587656846	1130.615030935219	929.7455322365226	-217.7633688305986	954.4368092668183	977.3170301441876	-360.8962666967267	952.9935278988064	977.3110661946235	-311.981748871032	1087.08934647128	961.6158240771667	-491.2590018379481	1065.151937760899	984.3450122745566	-176.6470834621821	1057.343335865507	800.5694459805203	-503.0460391215952	1122.837600311407	662.627194114778	-440.2924881318313	980.4069178302101	557.1756332533857	-481.276942479901	958.1473827673556	444.6794102309329	-478.0616004896655	nan	nan	nan	925.6007183417333	365.5214658015391	-431.6906610325508	776.6715502179343	432.0769821412938	-455.2286150566466	690.4334799577782	370.8191164948403	-400.3423227590778	598.1703064767911	419.4349747052764	-405.5978361675736	nan	nan	nan	548.5306734162957	284.6324109194076	-408.678958101495	517.1510379459247	338.6540663056603	-429.9127638274497	587.8969016708053	479.2431112174277	-335.5598457279925	1058.433941020986	863.5434106849896	-148.3766006207499	1211.848147729446	744.0135569480152	-251.6022646935199	1167.08189641748	598.2279247808898	-206.6183858478102	1224.282390666207	464.427636142006	-240.950707437046	nan	nan	nan	1248.860595543959	390.8649048974955	-309.348843150806	1165.477706137694	281.4524349276404	-237.2474239044182	1190.080472438293	181.3509435996913	-302.5949512512232	1123.865252806254	94.03314429968604	-275.3021017637001	nan	nan	nan	1261.216706525328	63.41646587590107	-313.7707276300867	1222.530989490255	41.16692179181133	-264.7479823972238	1048.116027921117	72.90917410098889	-314.8757115049862	
